<svg viewBox="5.479 -49.199 38.113 21.957" xmlns="http://www.w3.org/2000/svg"><path d="M6.209-31.582l16.328-16.715c.573-.601 1.246-.902 2.02-.902.372.014.723.097 1.052.247.33.15.638.369.924.655l16.328 16.715c.487.473.73 1.067.73 1.783 0 .473-.11.903-.332 1.29a2.51 2.51 0 01-2.202 1.267c-.73 0-1.347-.258-1.848-.774L23.504-44.129h2.084L9.86-28.016c-.487.516-1.103.774-1.847.774-.473 0-.9-.115-1.279-.344a2.624 2.624 0 01-.913-.924 2.481 2.481 0 01-.344-1.289c0-.344.061-.67.183-.977a2.21 2.21 0 01.548-.806z"/></svg>