<svg viewBox="5.479 -47.588 38.113 21.936" xmlns="http://www.w3.org/2000/svg"><path d="M24.557-25.652c.372 0 .723-.072 1.052-.215.33-.143.638-.365.924-.666l16.328-16.715a2.4 2.4 0 00.73-1.762c0-.487-.11-.924-.332-1.31a2.51 2.51 0 00-2.202-1.268c-.702 0-1.318.258-1.848.774L23.504-30.68h2.084L9.86-46.814c-.53-.516-1.146-.774-1.847-.774-.473 0-.9.115-1.279.344-.38.23-.684.537-.913.924-.229.386-.344.823-.344 1.31 0 .344.061.663.183.956.122.294.304.57.548.828l16.328 16.693c.602.587 1.275.88 2.02.88z"/></svg>